<mxfile host="app.diagrams.net" modified="2020-06-08T22:47:51.196Z" agent="5.0 (Windows NT 10.0; Win64; x64) AppleWebKit/537.36 (KHTML, like Gecko) Chrome/83.0.4103.61 Safari/537.36" etag="V72lsz_R4NC5yTf4cUDD" version="13.1.1" type="github">
  <diagram id="4E0ErUIPP69nFy3f-ycD" name="Page-1">
    <mxGraphModel dx="2062" dy="1074" grid="1" gridSize="10" guides="1" tooltips="1" connect="1" arrows="1" fold="1" page="1" pageScale="1" pageWidth="827" pageHeight="1169" math="0" shadow="0">
      <root>
        <mxCell id="0" />
        <mxCell id="1" parent="0" />
        <mxCell id="1Swpy-s5eGXHF4hbkcYN-1" value="Reception Service" style="triangle;whiteSpace=wrap;html=1;rotation=90;textDirection=rtl;horizontal=0;verticalAlign=bottom;direction=west;" vertex="1" parent="1">
          <mxGeometry x="92" y="110.75" width="212.5" height="110" as="geometry" />
        </mxCell>
        <mxCell id="1Swpy-s5eGXHF4hbkcYN-31" style="edgeStyle=orthogonalEdgeStyle;rounded=0;orthogonalLoop=1;jettySize=auto;html=1;entryX=0.5;entryY=0.27;entryDx=0;entryDy=0;entryPerimeter=0;" edge="1" parent="1" source="1Swpy-s5eGXHF4hbkcYN-5" target="1Swpy-s5eGXHF4hbkcYN-23">
          <mxGeometry relative="1" as="geometry" />
        </mxCell>
        <mxCell id="1Swpy-s5eGXHF4hbkcYN-5" value="Reception Handler" style="rounded=0;whiteSpace=wrap;html=1;align=center;verticalAlign=middle;" vertex="1" parent="1">
          <mxGeometry x="360.25" y="44" width="90" height="230" as="geometry" />
        </mxCell>
        <mxCell id="1Swpy-s5eGXHF4hbkcYN-30" style="edgeStyle=orthogonalEdgeStyle;rounded=0;orthogonalLoop=1;jettySize=auto;html=1;entryX=0;entryY=0;entryDx=0;entryDy=15;entryPerimeter=0;" edge="1" parent="1" source="1Swpy-s5eGXHF4hbkcYN-24" target="1Swpy-s5eGXHF4hbkcYN-23">
          <mxGeometry relative="1" as="geometry">
            <Array as="points">
              <mxPoint x="355" y="420" />
              <mxPoint x="355" y="322" />
            </Array>
          </mxGeometry>
        </mxCell>
        <mxCell id="1Swpy-s5eGXHF4hbkcYN-49" style="edgeStyle=orthogonalEdgeStyle;rounded=0;orthogonalLoop=1;jettySize=auto;html=1;entryX=1;entryY=0.5;entryDx=0;entryDy=0;" edge="1" parent="1" source="1Swpy-s5eGXHF4hbkcYN-24" target="1Swpy-s5eGXHF4hbkcYN-35">
          <mxGeometry relative="1" as="geometry">
            <Array as="points">
              <mxPoint x="125" y="430" />
              <mxPoint x="125" y="403" />
            </Array>
          </mxGeometry>
        </mxCell>
        <mxCell id="1Swpy-s5eGXHF4hbkcYN-51" style="edgeStyle=orthogonalEdgeStyle;rounded=0;orthogonalLoop=1;jettySize=auto;html=1;exitX=0;exitY=0.75;exitDx=0;exitDy=0;entryX=1;entryY=0.5;entryDx=0;entryDy=0;" edge="1" parent="1" source="1Swpy-s5eGXHF4hbkcYN-24" target="1Swpy-s5eGXHF4hbkcYN-40">
          <mxGeometry relative="1" as="geometry" />
        </mxCell>
        <mxCell id="1Swpy-s5eGXHF4hbkcYN-52" style="edgeStyle=orthogonalEdgeStyle;rounded=0;orthogonalLoop=1;jettySize=auto;html=1;entryX=1;entryY=0.5;entryDx=0;entryDy=0;" edge="1" parent="1" source="1Swpy-s5eGXHF4hbkcYN-24" target="1Swpy-s5eGXHF4hbkcYN-38">
          <mxGeometry relative="1" as="geometry" />
        </mxCell>
        <mxCell id="1Swpy-s5eGXHF4hbkcYN-24" value="SendNotification Handler" style="rounded=0;whiteSpace=wrap;html=1;align=center;verticalAlign=middle;" vertex="1" parent="1">
          <mxGeometry x="160" y="382.5" width="90" height="165" as="geometry" />
        </mxCell>
        <mxCell id="1Swpy-s5eGXHF4hbkcYN-2" value="" style="shape=flexArrow;endArrow=classic;html=1;entryX=0;entryY=0.296;entryDx=0;entryDy=0;exitX=0.787;exitY=0.585;exitDx=0;exitDy=0;exitPerimeter=0;entryPerimeter=0;" edge="1" parent="1" source="1Swpy-s5eGXHF4hbkcYN-1" target="1Swpy-s5eGXHF4hbkcYN-5">
          <mxGeometry width="50" height="50" relative="1" as="geometry">
            <mxPoint x="180.2499999999999" y="114.13000000000011" as="sourcePoint" />
            <mxPoint x="441.61" y="114" as="targetPoint" />
          </mxGeometry>
        </mxCell>
        <mxCell id="1Swpy-s5eGXHF4hbkcYN-4" value="SynchQueue" style="edgeLabel;html=1;align=right;verticalAlign=top;resizable=0;points=[];" vertex="1" connectable="0" parent="1Swpy-s5eGXHF4hbkcYN-2">
          <mxGeometry x="0.3174" y="1" relative="1" as="geometry">
            <mxPoint x="13" as="offset" />
          </mxGeometry>
        </mxCell>
        <mxCell id="1Swpy-s5eGXHF4hbkcYN-8" value="" style="shape=flexArrow;endArrow=classic;html=1;entryX=-0.017;entryY=0.173;entryDx=0;entryDy=0;exitX=0.558;exitY=0.736;exitDx=0;exitDy=0;exitPerimeter=0;entryPerimeter=0;" edge="1" parent="1" source="1Swpy-s5eGXHF4hbkcYN-1">
          <mxGeometry width="50" height="50" relative="1" as="geometry">
            <mxPoint x="180.25" y="154.0000000000001" as="sourcePoint" />
            <mxPoint x="358.21000000000004" y="156.5300000000001" as="targetPoint" />
          </mxGeometry>
        </mxCell>
        <mxCell id="1Swpy-s5eGXHF4hbkcYN-9" value="AysnchQueue" style="edgeLabel;html=1;align=right;verticalAlign=top;resizable=0;points=[];" vertex="1" connectable="0" parent="1Swpy-s5eGXHF4hbkcYN-8">
          <mxGeometry x="0.3174" y="1" relative="1" as="geometry">
            <mxPoint x="23" as="offset" />
          </mxGeometry>
        </mxCell>
        <mxCell id="1Swpy-s5eGXHF4hbkcYN-12" value="" style="shape=flexArrow;endArrow=classic;html=1;exitX=0.817;exitY=0.548;exitDx=0;exitDy=0;exitPerimeter=0;entryX=0.276;entryY=0.839;entryDx=0;entryDy=0;entryPerimeter=0;" edge="1" parent="1" target="1Swpy-s5eGXHF4hbkcYN-1">
          <mxGeometry width="50" height="50" relative="1" as="geometry">
            <mxPoint x="360.25000000000006" y="216.5300000000002" as="sourcePoint" />
            <mxPoint x="182.25" y="214" as="targetPoint" />
          </mxGeometry>
        </mxCell>
        <mxCell id="1Swpy-s5eGXHF4hbkcYN-13" value="RS_Queue" style="edgeLabel;html=1;align=left;verticalAlign=top;resizable=0;points=[];" vertex="1" connectable="0" parent="1Swpy-s5eGXHF4hbkcYN-12">
          <mxGeometry x="0.3174" y="1" relative="1" as="geometry">
            <mxPoint x="-19.25" y="5.31" as="offset" />
          </mxGeometry>
        </mxCell>
        <mxCell id="1Swpy-s5eGXHF4hbkcYN-14" value="" style="endArrow=none;html=1;" edge="1" parent="1">
          <mxGeometry width="50" height="50" relative="1" as="geometry">
            <mxPoint x="580" y="600" as="sourcePoint" />
            <mxPoint x="580" y="40" as="targetPoint" />
          </mxGeometry>
        </mxCell>
        <mxCell id="1Swpy-s5eGXHF4hbkcYN-15" value="StUFZKN" style="text;strokeColor=none;fillColor=none;html=1;fontSize=24;fontStyle=1;verticalAlign=middle;align=center;" vertex="1" parent="1">
          <mxGeometry x="290" width="100" height="40" as="geometry" />
        </mxCell>
        <mxCell id="1Swpy-s5eGXHF4hbkcYN-16" value="Connect" style="text;strokeColor=none;fillColor=none;html=1;fontSize=24;fontStyle=1;verticalAlign=middle;align=center;" vertex="1" parent="1">
          <mxGeometry x="650" width="100" height="40" as="geometry" />
        </mxCell>
        <mxCell id="1Swpy-s5eGXHF4hbkcYN-17" value="Entity Service" style="triangle;whiteSpace=wrap;html=1;rotation=90;textDirection=rtl;horizontal=0;verticalAlign=bottom;direction=west;" vertex="1" parent="1">
          <mxGeometry x="650" y="260" width="95" height="115" as="geometry" />
        </mxCell>
        <mxCell id="1Swpy-s5eGXHF4hbkcYN-20" value="SendNotification Service" style="triangle;whiteSpace=wrap;html=1;rotation=90;textDirection=rtl;horizontal=0;verticalAlign=bottom;direction=west;" vertex="1" parent="1">
          <mxGeometry x="338.75" y="407.5" width="95" height="115" as="geometry" />
        </mxCell>
        <mxCell id="1Swpy-s5eGXHF4hbkcYN-21" value="Connect Event Forwarder" style="rounded=0;whiteSpace=wrap;html=1;align=center;" vertex="1" parent="1">
          <mxGeometry x="625" y="435" width="150" height="60" as="geometry" />
        </mxCell>
        <mxCell id="1Swpy-s5eGXHF4hbkcYN-23" value="Connect BL" style="shape=module;align=left;spacingLeft=20;align=center;verticalAlign=top;" vertex="1" parent="1">
          <mxGeometry x="460" y="306.5" width="100" height="50" as="geometry" />
        </mxCell>
        <mxCell id="1Swpy-s5eGXHF4hbkcYN-26" value="" style="endArrow=classic;html=1;entryX=0.5;entryY=0;entryDx=0;entryDy=0;exitX=1;exitY=0.25;exitDx=0;exitDy=0;" edge="1" parent="1" source="1Swpy-s5eGXHF4hbkcYN-23" target="1Swpy-s5eGXHF4hbkcYN-17">
          <mxGeometry width="50" height="50" relative="1" as="geometry">
            <mxPoint x="570" y="250" as="sourcePoint" />
            <mxPoint x="630" y="200" as="targetPoint" />
          </mxGeometry>
        </mxCell>
        <mxCell id="1Swpy-s5eGXHF4hbkcYN-27" value="" style="endArrow=classic;html=1;entryX=0.5;entryY=1;entryDx=0;entryDy=0;exitX=0;exitY=0.5;exitDx=0;exitDy=0;" edge="1" parent="1" source="1Swpy-s5eGXHF4hbkcYN-21" target="1Swpy-s5eGXHF4hbkcYN-20">
          <mxGeometry width="50" height="50" relative="1" as="geometry">
            <mxPoint x="480" y="600" as="sourcePoint" />
            <mxPoint x="530" y="550" as="targetPoint" />
          </mxGeometry>
        </mxCell>
        <mxCell id="1Swpy-s5eGXHF4hbkcYN-32" value="" style="shape=flexArrow;endArrow=classic;html=1;exitX=0.5;exitY=0;exitDx=0;exitDy=0;entryX=0.276;entryY=0.839;entryDx=0;entryDy=0;entryPerimeter=0;" edge="1" parent="1" source="1Swpy-s5eGXHF4hbkcYN-20">
          <mxGeometry width="50" height="50" relative="1" as="geometry">
            <mxPoint x="374.71" y="466.5900000000002" as="sourcePoint" />
            <mxPoint x="249.99999999999997" y="463.4099999999999" as="targetPoint" />
          </mxGeometry>
        </mxCell>
        <mxCell id="1Swpy-s5eGXHF4hbkcYN-33" value="RH_Queue" style="edgeLabel;html=1;align=left;verticalAlign=top;resizable=0;points=[];" vertex="1" connectable="0" parent="1Swpy-s5eGXHF4hbkcYN-32">
          <mxGeometry x="0.3174" y="1" relative="1" as="geometry">
            <mxPoint x="-19.25" y="5.31" as="offset" />
          </mxGeometry>
        </mxCell>
        <mxCell id="1Swpy-s5eGXHF4hbkcYN-34" value="" style="endArrow=none;html=1;" edge="1" parent="1">
          <mxGeometry width="50" height="50" relative="1" as="geometry">
            <mxPoint x="130" y="585" as="sourcePoint" />
            <mxPoint x="130" y="25" as="targetPoint" />
          </mxGeometry>
        </mxCell>
        <mxCell id="1Swpy-s5eGXHF4hbkcYN-35" value="Vendor-1" style="rounded=0;whiteSpace=wrap;html=1;align=center;" vertex="1" parent="1">
          <mxGeometry x="30" y="382.5" width="60" height="40" as="geometry" />
        </mxCell>
        <mxCell id="1Swpy-s5eGXHF4hbkcYN-38" value="Vendor-2" style="rounded=0;whiteSpace=wrap;html=1;align=center;" vertex="1" parent="1">
          <mxGeometry x="30" y="445" width="60" height="40" as="geometry" />
        </mxCell>
        <mxCell id="1Swpy-s5eGXHF4hbkcYN-40" value="Vendor-3" style="rounded=0;whiteSpace=wrap;html=1;align=center;" vertex="1" parent="1">
          <mxGeometry x="30" y="507.5" width="60" height="40" as="geometry" />
        </mxCell>
        <mxCell id="1Swpy-s5eGXHF4hbkcYN-44" value="3rd Party" style="text;strokeColor=none;fillColor=none;html=1;fontSize=24;fontStyle=1;verticalAlign=middle;align=center;" vertex="1" parent="1">
          <mxGeometry x="10" y="4" width="100" height="40" as="geometry" />
        </mxCell>
        <mxCell id="1Swpy-s5eGXHF4hbkcYN-47" style="edgeStyle=orthogonalEdgeStyle;rounded=0;orthogonalLoop=1;jettySize=auto;html=1;entryX=0.69;entryY=0.364;entryDx=0;entryDy=0;entryPerimeter=0;" edge="1" parent="1" source="1Swpy-s5eGXHF4hbkcYN-45" target="1Swpy-s5eGXHF4hbkcYN-1">
          <mxGeometry relative="1" as="geometry" />
        </mxCell>
        <mxCell id="1Swpy-s5eGXHF4hbkcYN-45" value="Vendor-1" style="rounded=0;whiteSpace=wrap;html=1;align=center;" vertex="1" parent="1">
          <mxGeometry x="32" y="107.75" width="60" height="40" as="geometry" />
        </mxCell>
        <mxCell id="1Swpy-s5eGXHF4hbkcYN-48" style="edgeStyle=orthogonalEdgeStyle;rounded=0;orthogonalLoop=1;jettySize=auto;html=1;" edge="1" parent="1" source="1Swpy-s5eGXHF4hbkcYN-46" target="1Swpy-s5eGXHF4hbkcYN-1">
          <mxGeometry relative="1" as="geometry" />
        </mxCell>
        <mxCell id="1Swpy-s5eGXHF4hbkcYN-46" value="Vendor-2" style="rounded=0;whiteSpace=wrap;html=1;align=center;" vertex="1" parent="1">
          <mxGeometry x="32" y="170.25" width="60" height="40" as="geometry" />
        </mxCell>
      </root>
    </mxGraphModel>
  </diagram>
</mxfile>
